{
  "accessors": [
    {
      "bufferView": 2,
      "componentType": 5126,
      "count": 8388,
      "max": [
        1.5175000429153442,
        0.819133996963501,
        1.8750989437103271
      ],
      "min": [
        -2.15952205657959,
        -0.819133996963501,
        -0.5178859829902649
      ],
      "type": "VEC3"
    },
    {
      "bufferView": 2,
      "byteOffset": 100656,
      "componentType": 5126,
      "count": 8388,
      "max": [
        1.0,
        1.0,
        1.0
      ],
      "min": [
        -1.0,
        -1.0,
        -1.0
      ],
      "type": "VEC3"
    },
    {
      "bufferView": 3,
      "componentType": 5126,
      "count": 8388,
      "max": [
        1.0,
        1.0,
        1.0,
        1.0
      ],
      "min": [
        -1.0,
        -1.0,
        -1.0,
        -1.0
      ],
      "type": "VEC4"
    },
    {
      "bufferView": 1,
      "componentType": 5126,
      "count": 8388,
      "max": [
        0.9851610064506531,
        0.9900000095367432
      ],
      "min": [
        0.009999999776482582,
        0.014835000038146973
      ],
      "type": "VEC2"
    },
    {
      "bufferView": 0,
      "componentType": 5125,
      "count": 39102,
      "type": "SCALAR"
    },
    {
      "bufferView": 2,
      "byteOffset": 201312,
      "componentType": 5126,
      "count": 9950,
      "max": [
        1.6133170127868652,
        0.7536939978599548,
        1.9689429998397827
      ],
      "min": [
        -4.36252498626709,
        -1.9333029985427856,
        -0.5273330211639404
      ],
      "type": "VEC3"
    },
    {
      "bufferView": 2,
      "byteOffset": 320712,
      "componentType": 5126,
      "count": 9950,
      "max": [
        1.0,
        1.0,
        1.0
      ],
      "min": [
        -1.0,
        -1.0,
        -1.0
      ],
      "type": "VEC3"
    },
    {
      "bufferView": 3,
      "byteOffset": 134208,
      "componentType": 5126,
      "count": 9950,
      "max": [
        1.0,
        1.0,
        1.0,
        1.0
      ],
      "min": [
        -0.9999997615814209,
        -0.9999996423721313,
        -0.9999997615814209,
        -1.0
      ],
      "type": "VEC4"
    },
    {
      "bufferView": 1,
      "byteOffset": 67104,
      "componentType": 5126,
      "count": 9950,
      "max": [
        0.9682220220565796,
        1.0
      ],
      "min": [
        0.0,
        0.05378999933600426
      ],
      "type": "VEC2"
    },
    {
      "bufferView": 0,
      "byteOffset": 156408,
      "componentType": 5125,
      "count": 44091,
      "type": "SCALAR"
    },
    {
      "bufferView": 2,
      "byteOffset": 440112,
      "componentType": 5126,
      "count": 3035,
      "max": [
        1.5175000429153442,
        0.7714120149612427,
        1.9689429998397827
      ],
      "min": [
        -2.162214994430542,
        -0.7536939978599548,
        -0.5273330211639404
      ],
      "type": "VEC3"
    },
    {
      "bufferView": 2,
      "byteOffset": 476532,
      "componentType": 5126,
      "count": 3035,
      "max": [
        1.0,
        0.9867092370986938,
        1.0
      ],
      "min": [
        -1.0,
        -1.0,
        -1.0
      ],
      "type": "VEC3"
    },
    {
      "bufferView": 3,
      "byteOffset": 293408,
      "componentType": 5126,
      "count": 3035,
      "max": [
        1.0,
        1.0,
        1.0,
        1.0
      ],
      "min": [
        -1.0,
        -1.0,
        -1.0,
        -1.0
      ],
      "type": "VEC4"
    },
    {
      "bufferView": 1,
      "byteOffset": 146704,
      "componentType": 5126,
      "count": 3035,
      "max": [
        0.9900000095367432,
        1.0
      ],
      "min": [
        0.0,
        0.041457001119852066
      ],
      "type": "VEC2"
    },
    {
      "bufferView": 0,
      "byteOffset": 332772,
      "componentType": 5125,
      "count": 12750,
      "type": "SCALAR"
    }
  ],
  "asset": {
    "extras": {
      "author": "Sasha.Vladyka (https://sketchfab.com/Sasha.Vladyka)",
      "license": "CC-BY-4.0 (http://creativecommons.org/licenses/by/4.0/)",
      "source": "https://sketchfab.com/3d-models/stylized-toy-train-7e6c696592ee4cb3b7fab42325420079",
      "title": "Stylized Toy Train"
    },
    "generator": "Sketchfab-12.66.0",
    "version": "2.0"
  },
  "bufferViews": [
    {
      "buffer": 0,
      "byteLength": 383772,
      "name": "floatBufferViews",
      "target": 34963
    },
    {
      "buffer": 0,
      "byteLength": 170984,
      "byteOffset": 383772,
      "byteStride": 8,
      "name": "floatBufferViews",
      "target": 34962
    },
    {
      "buffer": 0,
      "byteLength": 512952,
      "byteOffset": 554756,
      "byteStride": 12,
      "name": "floatBufferViews",
      "target": 34962
    },
    {
      "buffer": 0,
      "byteLength": 341968,
      "byteOffset": 1067708,
      "byteStride": 16,
      "name": "floatBufferViews",
      "target": 34962
    }
  ],
  "buffers": [
    {
      "byteLength": 1409676,
      "uri": "scene.bin"
    }
  ],
  "images": [
    {
      "uri": "textures/initialShadingGroup_baseColor.png"
    },
    {
      "uri": "textures/initialShadingGroup_metallicRoughness.png"
    },
    {
      "uri": "textures/initialShadingGroup_normal.png"
    }
  ],
  "materials": [
    {
      "doubleSided": true,
      "name": "initialShadingGroup",
      "normalTexture": {
        "index": 2
      },
      "occlusionTexture": {
        "index": 1
      },
      "pbrMetallicRoughness": {
        "baseColorTexture": {
          "index": 0
        },
        "metallicRoughnessTexture": {
          "index": 1
        }
      }
    }
  ],
  "meshes": [
    {
      "name": "Object_0",
      "primitives": [
        {
          "attributes": {
            "NORMAL": 1,
            "POSITION": 0,
            "TANGENT": 2,
            "TEXCOORD_0": 3
          },
          "indices": 4,
          "material": 0,
          "mode": 4
        }
      ]
    },
    {
      "name": "Object_1",
      "primitives": [
        {
          "attributes": {
            "NORMAL": 6,
            "POSITION": 5,
            "TANGENT": 7,
            "TEXCOORD_0": 8
          },
          "indices": 9,
          "material": 0,
          "mode": 4
        }
      ]
    },
    {
      "name": "Object_2",
      "primitives": [
        {
          "attributes": {
            "NORMAL": 11,
            "POSITION": 10,
            "TANGENT": 12,
            "TEXCOORD_0": 13
          },
          "indices": 14,
          "material": 0,
          "mode": 4
        }
      ]
    }
  ],
  "nodes": [
    {
      "children": [
        1
      ],
      "matrix": [
        1.0,
        0.0,
        0.0,
        0.0,
        0.0,
        2.220446049250313e-16,
        -1.0,
        0.0,
        0.0,
        1.0,
        2.220446049250313e-16,
        0.0,
        0.0,
        0.0,
        0.0,
        1.0
      ],
      "name": "Sketchfab_model"
    },
    {
      "children": [
        2,
        3,
        4
      ],
      "name": "3.obj.cleaner.materialmerger.gles"
    },
    {
      "mesh": 0,
      "name": "Object_2"
    },
    {
      "mesh": 1,
      "name": "Object_3"
    },
    {
      "mesh": 2,
      "name": "Object_4"
    }
  ],
  "samplers": [
    {
      "magFilter": 9729,
      "minFilter": 9987,
      "wrapS": 10497,
      "wrapT": 10497
    }
  ],
  "scene": 0,
  "scenes": [
    {
      "name": "Sketchfab_Scene",
      "nodes": [
        0
      ]
    }
  ],
  "textures": [
    {
      "sampler": 0,
      "source": 0
    },
    {
      "sampler": 0,
      "source": 1
    },
    {
      "sampler": 0,
      "source": 2
    }
  ]
}
